<svg width="145" height="33" viewBox="0 0 145 33" fill="none" xmlns="http://www.w3.org/2000/svg">
<path d="M6.15234 18.5H2.75391V4.69531C2.75391 3.73438 2.94141 2.92578 3.31641 2.26953C3.69922 1.60547 4.23438 1.10547 4.92188 0.769531C5.61719 0.425781 6.44141 0.253906 7.39453 0.253906C7.70703 0.253906 8.00781 0.277344 8.29688 0.324219C8.58594 0.363281 8.86719 0.414063 9.14062 0.476562L9.10547 3.01953C8.95703 2.98047 8.80078 2.95312 8.63672 2.9375C8.47266 2.92188 8.28125 2.91406 8.0625 2.91406C7.65625 2.91406 7.30859 2.98438 7.01953 3.125C6.73828 3.25781 6.52344 3.45703 6.375 3.72266C6.22656 3.98828 6.15234 4.3125 6.15234 4.69531V18.5ZM8.68359 5.82031V8.21094H0.867188V5.82031H8.68359ZM9.91406 12.2891V12.043C9.91406 11.1133 10.0469 10.2578 10.3125 9.47656C10.5781 8.6875 10.9648 8.00391 11.4727 7.42578C11.9805 6.84766 12.6055 6.39844 13.3477 6.07812C14.0898 5.75 14.9414 5.58594 15.9023 5.58594C16.8633 5.58594 17.7188 5.75 18.4688 6.07812C19.2188 6.39844 19.8477 6.84766 20.3555 7.42578C20.8711 8.00391 21.2617 8.6875 21.5273 9.47656C21.793 10.2578 21.9258 11.1133 21.9258 12.043V12.2891C21.9258 13.2109 21.793 14.0664 21.5273 14.8555C21.2617 15.6367 20.8711 16.3203 20.3555 16.9062C19.8477 17.4844 19.2227 17.9336 18.4805 18.2539C17.7383 18.5742 16.8867 18.7344 15.9258 18.7344C14.9648 18.7344 14.1094 18.5742 13.3594 18.2539C12.6172 17.9336 11.9883 17.4844 11.4727 16.9062C10.9648 16.3203 10.5781 15.6367 10.3125 14.8555C10.0469 14.0664 9.91406 13.2109 9.91406 12.2891ZM13.2891 12.043V12.2891C13.2891 12.8203 13.3359 13.3164 13.4297 13.7773C13.5234 14.2383 13.6719 14.6445 13.875 14.9961C14.0859 15.3398 14.3594 15.6094 14.6953 15.8047C15.0312 16 15.4414 16.0977 15.9258 16.0977C16.3945 16.0977 16.7969 16 17.1328 15.8047C17.4688 15.6094 17.7383 15.3398 17.9414 14.9961C18.1445 14.6445 18.293 14.2383 18.3867 13.7773C18.4883 13.3164 18.5391 12.8203 18.5391 12.2891V12.043C18.5391 11.5273 18.4883 11.043 18.3867 10.5898C18.293 10.1289 18.1406 9.72266 17.9297 9.37109C17.7266 9.01172 17.457 8.73047 17.1211 8.52734C16.7852 8.32422 16.3789 8.22266 15.9023 8.22266C15.4258 8.22266 15.0195 8.32422 14.6836 8.52734C14.3555 8.73047 14.0859 9.01172 13.875 9.37109C13.6719 9.72266 13.5234 10.1289 13.4297 10.5898C13.3359 11.043 13.2891 11.5273 13.2891 12.043ZM23.4609 12.2891V12.043C23.4609 11.1133 23.5938 10.2578 23.8594 9.47656C24.125 8.6875 24.5117 8.00391 25.0195 7.42578C25.5273 6.84766 26.1523 6.39844 26.8945 6.07812C27.6367 5.75 28.4883 5.58594 29.4492 5.58594C30.4102 5.58594 31.2656 5.75 32.0156 6.07812C32.7656 6.39844 33.3945 6.84766 33.9023 7.42578C34.418 8.00391 34.8086 8.6875 35.0742 9.47656C35.3398 10.2578 35.4727 11.1133 35.4727 12.043V12.2891C35.4727 13.2109 35.3398 14.0664 35.0742 14.8555C34.8086 15.6367 34.418 16.3203 33.9023 16.9062C33.3945 17.4844 32.7695 17.9336 32.0273 18.2539C31.2852 18.5742 30.4336 18.7344 29.4727 18.7344C28.5117 18.7344 27.6562 18.5742 26.9062 18.2539C26.1641 17.9336 25.5352 17.4844 25.0195 16.9062C24.5117 16.3203 24.125 15.6367 23.8594 14.8555C23.5938 14.0664 23.4609 13.2109 23.4609 12.2891ZM26.8359 12.043V12.2891C26.8359 12.8203 26.8828 13.3164 26.9766 13.7773C27.0703 14.2383 27.2188 14.6445 27.4219 14.9961C27.6328 15.3398 27.9062 15.6094 28.2422 15.8047C28.5781 16 28.9883 16.0977 29.4727 16.0977C29.9414 16.0977 30.3438 16 30.6797 15.8047C31.0156 15.6094 31.2852 15.3398 31.4883 14.9961C31.6914 14.6445 31.8398 14.2383 31.9336 13.7773C32.0352 13.3164 32.0859 12.8203 32.0859 12.2891V12.043C32.0859 11.5273 32.0352 11.043 31.9336 10.5898C31.8398 10.1289 31.6875 9.72266 31.4766 9.37109C31.2734 9.01172 31.0039 8.73047 30.668 8.52734C30.332 8.32422 29.9258 8.22266 29.4492 8.22266C28.9727 8.22266 28.5664 8.32422 28.2305 8.52734C27.9023 8.73047 27.6328 9.01172 27.4219 9.37109C27.2188 9.72266 27.0703 10.1289 26.9766 10.5898C26.8828 11.043 26.8359 11.5273 26.8359 12.043ZM45.0352 15.7344V0.5H48.4336V18.5H45.375L45.0352 15.7344ZM37.0195 12.3125V12.0664C37.0195 11.0977 37.1289 10.2188 37.3477 9.42969C37.5664 8.63281 37.8867 7.94922 38.3086 7.37891C38.7305 6.80859 39.25 6.36719 39.8672 6.05469C40.4844 5.74219 41.1875 5.58594 41.9766 5.58594C42.7188 5.58594 43.3672 5.74219 43.9219 6.05469C44.4844 6.36719 44.9609 6.8125 45.3516 7.39062C45.75 7.96094 46.0703 8.63672 46.3125 9.41797C46.5547 10.1914 46.7305 11.0391 46.8398 11.9609V12.5C46.7305 13.3828 46.5547 14.2031 46.3125 14.9609C46.0703 15.7188 45.75 16.3828 45.3516 16.9531C44.9609 17.5156 44.4844 17.9531 43.9219 18.2656C43.3594 18.5781 42.7031 18.7344 41.9531 18.7344C41.1641 18.7344 40.4609 18.5742 39.8438 18.2539C39.2344 17.9336 38.7188 17.4844 38.2969 16.9062C37.8828 16.3281 37.5664 15.6484 37.3477 14.8672C37.1289 14.0859 37.0195 13.2344 37.0195 12.3125ZM40.3945 12.0664V12.3125C40.3945 12.8359 40.4336 13.3242 40.5117 13.7773C40.5977 14.2305 40.7344 14.6328 40.9219 14.9844C41.1172 15.3281 41.3672 15.5977 41.6719 15.793C41.9844 15.9805 42.3633 16.0742 42.8086 16.0742C43.3867 16.0742 43.8633 15.9453 44.2383 15.6875C44.6133 15.4219 44.8984 15.0586 45.0938 14.5977C45.2969 14.1367 45.4141 13.6055 45.4453 13.0039V11.4688C45.4219 10.9766 45.3516 10.5352 45.2344 10.1445C45.125 9.74609 44.9609 9.40625 44.7422 9.125C44.5312 8.84375 44.2656 8.625 43.9453 8.46875C43.6328 8.3125 43.2617 8.23438 42.832 8.23438C42.3945 8.23438 42.0195 8.33594 41.707 8.53906C41.3945 8.73438 41.1406 9.00391 40.9453 9.34766C40.7578 9.69141 40.6172 10.0977 40.5234 10.5664C40.4375 11.0273 40.3945 11.5273 40.3945 12.0664ZM62.8828 18.7344C61.8984 18.7344 61.0156 18.5781 60.2344 18.2656C59.4531 17.9453 58.7891 17.5039 58.2422 16.9414C57.7031 16.3789 57.2891 15.7266 57 14.9844C56.7109 14.2344 56.5664 13.4375 56.5664 12.5938V12.125C56.5664 11.1641 56.7031 10.2852 56.9766 9.48828C57.25 8.69141 57.6406 8 58.1484 7.41406C58.6641 6.82812 59.2891 6.37891 60.0234 6.06641C60.7578 5.74609 61.5859 5.58594 62.5078 5.58594C63.4062 5.58594 64.2031 5.73438 64.8984 6.03125C65.5938 6.32812 66.1758 6.75 66.6445 7.29688C67.1211 7.84375 67.4805 8.5 67.7227 9.26562C67.9648 10.0234 68.0859 10.8672 68.0859 11.7969V13.2031H58.0078V10.9531H64.7695V10.6953C64.7695 10.2266 64.6836 9.80859 64.5117 9.44141C64.3477 9.06641 64.0977 8.76953 63.7617 8.55078C63.4258 8.33203 62.9961 8.22266 62.4727 8.22266C62.0273 8.22266 61.6445 8.32031 61.3242 8.51562C61.0039 8.71094 60.7422 8.98438 60.5391 9.33594C60.3438 9.6875 60.1953 10.1016 60.0938 10.5781C60 11.0469 59.9531 11.5625 59.9531 12.125V12.5938C59.9531 13.1016 60.0234 13.5703 60.1641 14C60.3125 14.4297 60.5195 14.8008 60.7852 15.1133C61.0586 15.4258 61.3867 15.668 61.7695 15.8398C62.1602 16.0117 62.6016 16.0977 63.0938 16.0977C63.7031 16.0977 64.2695 15.9805 64.793 15.7461C65.3242 15.5039 65.7812 15.1406 66.1641 14.6562L67.8047 16.4375C67.5391 16.8203 67.1758 17.1875 66.7148 17.5391C66.2617 17.8906 65.7148 18.1797 65.0742 18.4062C64.4336 18.625 63.7031 18.7344 62.8828 18.7344ZM72.7266 5.82031L74.8242 9.67578L76.9805 5.82031H80.5781L76.9922 12.0195L80.7422 18.5H77.1328L74.8477 14.4219L72.5625 18.5H68.9531L72.7031 12.0195L69.1172 5.82031H72.7266ZM85.5938 8.25781V23.375H82.2188V5.82031H85.3477L85.5938 8.25781ZM93.6211 12.0195V12.2656C93.6211 13.1875 93.5117 14.043 93.293 14.832C93.082 15.6211 92.7695 16.3086 92.3555 16.8945C91.9414 17.4727 91.4258 17.9258 90.8086 18.2539C90.1992 18.5742 89.4961 18.7344 88.6992 18.7344C87.9258 18.7344 87.2539 18.5781 86.6836 18.2656C86.1133 17.9531 85.6328 17.5156 85.2422 16.9531C84.8594 16.3828 84.5508 15.7227 84.3164 14.9727C84.082 14.2227 83.9023 13.418 83.7773 12.5586V11.9141C83.9023 10.9922 84.082 10.1484 84.3164 9.38281C84.5508 8.60938 84.8594 7.94141 85.2422 7.37891C85.6328 6.80859 86.1094 6.36719 86.6719 6.05469C87.2422 5.74219 87.9102 5.58594 88.6758 5.58594C89.4805 5.58594 90.1875 5.73828 90.7969 6.04297C91.4141 6.34766 91.9297 6.78516 92.3438 7.35547C92.7656 7.92578 93.082 8.60547 93.293 9.39453C93.5117 10.1836 93.6211 11.0586 93.6211 12.0195ZM90.2344 12.2656V12.0195C90.2344 11.4805 90.1875 10.9844 90.0938 10.5312C90.0078 10.0703 89.8672 9.66797 89.6719 9.32422C89.4844 8.98047 89.2344 8.71484 88.9219 8.52734C88.6172 8.33203 88.2461 8.23438 87.8086 8.23438C87.3477 8.23438 86.9531 8.30859 86.625 8.45703C86.3047 8.60547 86.043 8.82031 85.8398 9.10156C85.6367 9.38281 85.4844 9.71875 85.3828 10.1094C85.2812 10.5 85.2188 10.9414 85.1953 11.4336V13.0625C85.2344 13.6406 85.3438 14.1602 85.5234 14.6211C85.7031 15.0742 85.9805 15.4336 86.3555 15.6992C86.7305 15.9648 87.2227 16.0977 87.832 16.0977C88.2773 16.0977 88.6523 16 88.957 15.8047C89.2617 15.6016 89.5078 15.3242 89.6953 14.9727C89.8906 14.6211 90.0273 14.2148 90.1055 13.7539C90.1914 13.293 90.2344 12.7969 90.2344 12.2656ZM99.2812 0.5V18.5H95.8945V0.5H99.2812ZM101.531 12.2891V12.043C101.531 11.1133 101.664 10.2578 101.93 9.47656C102.195 8.6875 102.582 8.00391 103.09 7.42578C103.598 6.84766 104.223 6.39844 104.965 6.07812C105.707 5.75 106.559 5.58594 107.52 5.58594C108.48 5.58594 109.336 5.75 110.086 6.07812C110.836 6.39844 111.465 6.84766 111.973 7.42578C112.488 8.00391 112.879 8.6875 113.145 9.47656C113.41 10.2578 113.543 11.1133 113.543 12.043V12.2891C113.543 13.2109 113.41 14.0664 113.145 14.8555C112.879 15.6367 112.488 16.3203 111.973 16.9062C111.465 17.4844 110.84 17.9336 110.098 18.2539C109.355 18.5742 108.504 18.7344 107.543 18.7344C106.582 18.7344 105.727 18.5742 104.977 18.2539C104.234 17.9336 103.605 17.4844 103.09 16.9062C102.582 16.3203 102.195 15.6367 101.93 14.8555C101.664 14.0664 101.531 13.2109 101.531 12.2891ZM104.906 12.043V12.2891C104.906 12.8203 104.953 13.3164 105.047 13.7773C105.141 14.2383 105.289 14.6445 105.492 14.9961C105.703 15.3398 105.977 15.6094 106.312 15.8047C106.648 16 107.059 16.0977 107.543 16.0977C108.012 16.0977 108.414 16 108.75 15.8047C109.086 15.6094 109.355 15.3398 109.559 14.9961C109.762 14.6445 109.91 14.2383 110.004 13.7773C110.105 13.3164 110.156 12.8203 110.156 12.2891V12.043C110.156 11.5273 110.105 11.043 110.004 10.5898C109.91 10.1289 109.758 9.72266 109.547 9.37109C109.344 9.01172 109.074 8.73047 108.738 8.52734C108.402 8.32422 107.996 8.22266 107.52 8.22266C107.043 8.22266 106.637 8.32422 106.301 8.52734C105.973 8.73047 105.703 9.01172 105.492 9.37109C105.289 9.72266 105.141 10.1289 105.047 10.5898C104.953 11.043 104.906 11.5273 104.906 12.043ZM118.992 8.58594V18.5H115.617V5.82031H118.793L118.992 8.58594ZM122.812 5.73828L122.754 8.86719C122.59 8.84375 122.391 8.82422 122.156 8.80859C121.93 8.78516 121.723 8.77344 121.535 8.77344C121.059 8.77344 120.645 8.83594 120.293 8.96094C119.949 9.07812 119.66 9.25391 119.426 9.48828C119.199 9.72266 119.027 10.0078 118.91 10.3438C118.801 10.6797 118.738 11.0625 118.723 11.4922L118.043 11.2812C118.043 10.4609 118.125 9.70703 118.289 9.01953C118.453 8.32422 118.691 7.71875 119.004 7.20312C119.324 6.6875 119.715 6.28906 120.176 6.00781C120.637 5.72656 121.164 5.58594 121.758 5.58594C121.945 5.58594 122.137 5.60156 122.332 5.63281C122.527 5.65625 122.688 5.69141 122.812 5.73828ZM130.008 18.7344C129.023 18.7344 128.141 18.5781 127.359 18.2656C126.578 17.9453 125.914 17.5039 125.367 16.9414C124.828 16.3789 124.414 15.7266 124.125 14.9844C123.836 14.2344 123.691 13.4375 123.691 12.5938V12.125C123.691 11.1641 123.828 10.2852 124.102 9.48828C124.375 8.69141 124.766 8 125.273 7.41406C125.789 6.82812 126.414 6.37891 127.148 6.06641C127.883 5.74609 128.711 5.58594 129.633 5.58594C130.531 5.58594 131.328 5.73438 132.023 6.03125C132.719 6.32812 133.301 6.75 133.77 7.29688C134.246 7.84375 134.605 8.5 134.848 9.26562C135.09 10.0234 135.211 10.8672 135.211 11.7969V13.2031H125.133V10.9531H131.895V10.6953C131.895 10.2266 131.809 9.80859 131.637 9.44141C131.473 9.06641 131.223 8.76953 130.887 8.55078C130.551 8.33203 130.121 8.22266 129.598 8.22266C129.152 8.22266 128.77 8.32031 128.449 8.51562C128.129 8.71094 127.867 8.98438 127.664 9.33594C127.469 9.6875 127.32 10.1016 127.219 10.5781C127.125 11.0469 127.078 11.5625 127.078 12.125V12.5938C127.078 13.1016 127.148 13.5703 127.289 14C127.438 14.4297 127.645 14.8008 127.91 15.1133C128.184 15.4258 128.512 15.668 128.895 15.8398C129.285 16.0117 129.727 16.0977 130.219 16.0977C130.828 16.0977 131.395 15.9805 131.918 15.7461C132.449 15.5039 132.906 15.1406 133.289 14.6562L134.93 16.4375C134.664 16.8203 134.301 17.1875 133.84 17.5391C133.387 17.8906 132.84 18.1797 132.199 18.4062C131.559 18.625 130.828 18.7344 130.008 18.7344ZM140.508 8.58594V18.5H137.133V5.82031H140.309L140.508 8.58594ZM144.328 5.73828L144.27 8.86719C144.105 8.84375 143.906 8.82422 143.672 8.80859C143.445 8.78516 143.238 8.77344 143.051 8.77344C142.574 8.77344 142.16 8.83594 141.809 8.96094C141.465 9.07812 141.176 9.25391 140.941 9.48828C140.715 9.72266 140.543 10.0078 140.426 10.3438C140.316 10.6797 140.254 11.0625 140.238 11.4922L139.559 11.2812C139.559 10.4609 139.641 9.70703 139.805 9.01953C139.969 8.32422 140.207 7.71875 140.52 7.20312C140.84 6.6875 141.23 6.28906 141.691 6.00781C142.152 5.72656 142.68 5.58594 143.273 5.58594C143.461 5.58594 143.652 5.60156 143.848 5.63281C144.043 5.65625 144.203 5.69141 144.328 5.73828Z" fill="white"/>
<path d="M115.104 31.416V28.1523C115.104 27.9023 115.053 27.6855 114.951 27.502C114.854 27.3145 114.705 27.1699 114.506 27.0684C114.307 26.9668 114.061 26.916 113.768 26.916C113.494 26.916 113.254 26.9629 113.047 27.0566C112.844 27.1504 112.684 27.2734 112.566 27.4258C112.453 27.5781 112.396 27.7422 112.396 27.918H111.312C111.312 27.6914 111.371 27.4668 111.488 27.2441C111.605 27.0215 111.773 26.8203 111.992 26.6406C112.215 26.457 112.48 26.3125 112.789 26.207C113.102 26.0977 113.449 26.043 113.832 26.043C114.293 26.043 114.699 26.1211 115.051 26.2773C115.406 26.4336 115.684 26.6699 115.883 26.9863C116.086 27.2988 116.188 27.6914 116.188 28.1641V31.1172C116.188 31.3281 116.205 31.5527 116.24 31.791C116.279 32.0293 116.336 32.2344 116.41 32.4062V32.5H115.279C115.225 32.375 115.182 32.209 115.15 32.002C115.119 31.791 115.104 31.5957 115.104 31.416ZM115.291 28.6562L115.303 29.418H114.207C113.898 29.418 113.623 29.4434 113.381 29.4941C113.139 29.541 112.936 29.6133 112.771 29.7109C112.607 29.8086 112.482 29.9316 112.396 30.0801C112.311 30.2246 112.268 30.3945 112.268 30.5898C112.268 30.7891 112.312 30.9707 112.402 31.1348C112.492 31.2988 112.627 31.4297 112.807 31.5273C112.99 31.6211 113.215 31.668 113.48 31.668C113.812 31.668 114.105 31.5977 114.359 31.457C114.613 31.3164 114.814 31.1445 114.963 30.9414C115.115 30.7383 115.197 30.541 115.209 30.3496L115.672 30.8711C115.645 31.0352 115.57 31.2168 115.449 31.416C115.328 31.6152 115.166 31.8066 114.963 31.9902C114.764 32.1699 114.525 32.3203 114.248 32.4414C113.975 32.5586 113.666 32.6172 113.322 32.6172C112.893 32.6172 112.516 32.5332 112.191 32.3652C111.871 32.1973 111.621 31.9727 111.441 31.6914C111.266 31.4062 111.178 31.0879 111.178 30.7363C111.178 30.3965 111.244 30.0977 111.377 29.8398C111.51 29.5781 111.701 29.3613 111.951 29.1895C112.201 29.0137 112.502 28.8809 112.854 28.791C113.205 28.7012 113.598 28.6562 114.031 28.6562H115.291ZM121.889 31.2695V23.5H122.979V32.5H121.982L121.889 31.2695ZM117.623 29.4004V29.2773C117.623 28.793 117.682 28.3535 117.799 27.959C117.92 27.5605 118.09 27.2188 118.309 26.9336C118.531 26.6484 118.795 26.4297 119.1 26.2773C119.408 26.1211 119.752 26.043 120.131 26.043C120.529 26.043 120.877 26.1133 121.174 26.2539C121.475 26.3906 121.729 26.5918 121.936 26.8574C122.146 27.1191 122.312 27.4355 122.434 27.8066C122.555 28.1777 122.639 28.5977 122.686 29.0664V29.6055C122.643 30.0703 122.559 30.4883 122.434 30.8594C122.312 31.2305 122.146 31.5469 121.936 31.8086C121.729 32.0703 121.475 32.2715 121.174 32.4121C120.873 32.5488 120.521 32.6172 120.119 32.6172C119.748 32.6172 119.408 32.5371 119.1 32.377C118.795 32.2168 118.531 31.9922 118.309 31.7031C118.09 31.4141 117.92 31.0742 117.799 30.6836C117.682 30.2891 117.623 29.8613 117.623 29.4004ZM118.713 29.2773V29.4004C118.713 29.7168 118.744 30.0137 118.807 30.291C118.873 30.5684 118.975 30.8125 119.111 31.0234C119.248 31.2344 119.422 31.4004 119.633 31.5215C119.844 31.6387 120.096 31.6973 120.389 31.6973C120.748 31.6973 121.043 31.6211 121.273 31.4688C121.508 31.3164 121.695 31.1152 121.836 30.8652C121.977 30.6152 122.086 30.3438 122.164 30.0508V28.6387C122.117 28.4238 122.049 28.2168 121.959 28.0176C121.873 27.8145 121.76 27.6348 121.619 27.4785C121.482 27.3184 121.312 27.1914 121.109 27.0977C120.91 27.0039 120.674 26.957 120.4 26.957C120.104 26.957 119.848 27.0195 119.633 27.1445C119.422 27.2656 119.248 27.4336 119.111 27.6484C118.975 27.8594 118.873 28.1055 118.807 28.3867C118.744 28.6641 118.713 28.9609 118.713 29.2773ZM125.744 27.4199V32.5H124.654V26.1602H125.686L125.744 27.4199ZM125.521 29.0898L125.018 29.0723C125.021 28.6387 125.078 28.2383 125.188 27.8711C125.297 27.5 125.459 27.1777 125.674 26.9043C125.889 26.6309 126.156 26.4199 126.477 26.2715C126.797 26.1191 127.168 26.043 127.59 26.043C127.887 26.043 128.16 26.0859 128.41 26.1719C128.66 26.2539 128.877 26.3848 129.061 26.5645C129.244 26.7441 129.387 26.9746 129.488 27.2559C129.59 27.5371 129.641 27.877 129.641 28.2754V32.5H128.557V28.3281C128.557 27.9961 128.5 27.7305 128.387 27.5312C128.277 27.332 128.121 27.1875 127.918 27.0977C127.715 27.0039 127.477 26.957 127.203 26.957C126.883 26.957 126.615 27.0137 126.4 27.127C126.186 27.2402 126.014 27.3965 125.885 27.5957C125.756 27.7949 125.662 28.0234 125.604 28.2812C125.549 28.5352 125.521 28.8047 125.521 29.0898ZM129.629 28.4922L128.902 28.7148C128.906 28.3672 128.963 28.0332 129.072 27.7129C129.186 27.3926 129.348 27.1074 129.559 26.8574C129.773 26.6074 130.037 26.4102 130.35 26.2656C130.662 26.1172 131.02 26.043 131.422 26.043C131.762 26.043 132.062 26.0879 132.324 26.1777C132.59 26.2676 132.812 26.4062 132.992 26.5938C133.176 26.7773 133.314 27.0137 133.408 27.3027C133.502 27.5918 133.549 27.9355 133.549 28.334V32.5H132.459V28.3223C132.459 27.9668 132.402 27.6914 132.289 27.4961C132.18 27.2969 132.023 27.1582 131.82 27.0801C131.621 26.998 131.383 26.957 131.105 26.957C130.867 26.957 130.656 26.998 130.473 27.0801C130.289 27.1621 130.135 27.2754 130.01 27.4199C129.885 27.5605 129.789 27.7227 129.723 27.9062C129.66 28.0898 129.629 28.2852 129.629 28.4922ZM136.367 26.1602V32.5H135.277V26.1602H136.367ZM135.195 24.4785C135.195 24.3027 135.248 24.1543 135.354 24.0332C135.463 23.9121 135.623 23.8516 135.834 23.8516C136.041 23.8516 136.199 23.9121 136.309 24.0332C136.422 24.1543 136.479 24.3027 136.479 24.4785C136.479 24.6465 136.422 24.791 136.309 24.9121C136.199 25.0293 136.041 25.0879 135.834 25.0879C135.623 25.0879 135.463 25.0293 135.354 24.9121C135.248 24.791 135.195 24.6465 135.195 24.4785ZM139.191 27.5137V32.5H138.107V26.1602H139.133L139.191 27.5137ZM138.934 29.0898L138.482 29.0723C138.486 28.6387 138.551 28.2383 138.676 27.8711C138.801 27.5 138.977 27.1777 139.203 26.9043C139.43 26.6309 139.699 26.4199 140.012 26.2715C140.328 26.1191 140.678 26.043 141.061 26.043C141.373 26.043 141.654 26.0859 141.904 26.1719C142.154 26.2539 142.367 26.3867 142.543 26.5703C142.723 26.7539 142.859 26.9922 142.953 27.2852C143.047 27.5742 143.094 27.9277 143.094 28.3457V32.5H142.004V28.334C142.004 28.002 141.955 27.7363 141.857 27.5371C141.76 27.334 141.617 27.1875 141.43 27.0977C141.242 27.0039 141.012 26.957 140.738 26.957C140.469 26.957 140.223 27.0137 140 27.127C139.781 27.2402 139.592 27.3965 139.432 27.5957C139.275 27.7949 139.152 28.0234 139.062 28.2812C138.977 28.5352 138.934 28.8047 138.934 29.0898Z" fill="#82F3FF"/>
</svg>